<?xml version="1.0" encoding="utf-8"?>
<!-- Generator: Adobe Illustrator 17.0.0, SVG Export Plug-In . SVG Version: 6.00 Build 0)  -->
<!DOCTYPE svg PUBLIC "-//W3C//DTD SVG 1.1//EN" "http://www.w3.org/Graphics/SVG/1.1/DTD/svg11.dtd">
<svg version="1.1" id="Layer_1" xmlns="http://www.w3.org/2000/svg" xmlns:xlink="http://www.w3.org/1999/xlink" x="0px" y="0px"
	 width="155.957px" height="121.981px" viewBox="212.12 301.82 155.957 121.981"
	 enable-background="new 212.12 301.82 155.957 121.981" xml:space="preserve">
<polygon fill="#CCCCCC" points="296.715,377.587 296.846,377.456 296.715,377.354 "/>
<polygon fill="#CCCCCC" points="350.658,321.332 350.658,399.48 364.395,409.951 364.395,307.597 230.132,307.597 248.15,321.332 
	"/>
<path fill="#CCCCCC" d="M296.715,377.587v-0.233l-6.118-4.665v17.423h8.672c3.778,0,7.3-1.098,10.266-2.987l-12.689-9.671
	L296.715,377.587z"/>
<polygon fill="#CCCCCC" points="236.652,400.656 236.652,331.567 222.917,321.095 222.917,414.393 345.296,414.393 327.281,400.656 
	"/>
<path fill="#CCCCCC" d="M268.881,370.954c0,9.474,6.877,17.337,15.912,18.881v-18.029l-15.15-15.09l-0.762-0.581V370.954z"/>
<path fill="#CCCCCC" d="M308.432,331.874l-7.994,8.788l-6.893-8.788l-6.444,8.788l-8.223-8.788
	c-1.584,2.924-2.598,6.839-2.641,10.869l23.266,17.736C312.753,356.085,312.996,340.294,308.432,331.874z"/>
<path fill="#CCCCCC" d="M318.43,370.954v-14.995l-10.779,10.735l10.422,7.942C318.304,373.445,318.43,372.213,318.43,370.954z"/>
<polygon fill="#CCCCCC" points="364.395,413.621 347.389,400.656 317.222,377.658 305.565,368.771 296.715,362.025 276.508,346.622 
	243.335,321.332 225.318,307.597 217.74,301.82 212.12,309.196 222.917,317.424 236.652,327.896 290.596,369.02 296.715,373.684 
	298.933,375.376 311.958,385.306 332.096,400.656 350.114,414.393 362.455,423.801 368.077,416.43 "/>
</svg>
